<?xml version="1.0" encoding="UTF-8"?>
<svg xmlns="http://www.w3.org/2000/svg" xmlns:xlink="http://www.w3.org/1999/xlink" width="375pt" height="374.999991pt" viewBox="0 0 375 374.999991" version="1.2">
<defs>
<clipPath id="clip1">
  <path d="M 38.519531 186.546875 L 172 186.546875 L 172 320.613281 L 38.519531 320.613281 Z M 38.519531 186.546875 "/>
</clipPath>
<clipPath id="clip2">
  <path d="M 203 186 L 336.199219 186 L 336.199219 320.613281 L 203 320.613281 Z M 203 186 "/>
</clipPath>
</defs>
<g id="surface1">
<g clip-path="url(#clip1)" clip-rule="nonzero">
<path style=" stroke:none;fill-rule:nonzero;fill:rgb(97.24884%,27.059937%,29.019165%);fill-opacity:1;" d="M 103.585938 195.28125 C 135.535156 194.40625 162.148438 219.652344 163.019531 251.675781 C 163.019531 252.230469 163.046875 252.8125 163.019531 253.367188 C 163.203125 285.390625 137.4375 311.484375 105.460938 311.667969 C 73.511719 311.855469 47.425781 286.050781 47.242188 254.03125 C 47.242188 253.820312 47.242188 253.582031 47.242188 253.367188 C 47.1875 221.902344 72.1875 196.128906 103.585938 195.28125 Z M 103.160156 186.730469 C 67.167969 187.765625 38.519531 217.296875 38.519531 253.367188 C 38.203125 290.179688 67.75 320.296875 104.535156 320.613281 C 141.296875 320.933594 171.371094 291.34375 171.6875 254.535156 C 171.6875 254.136719 171.6875 253.765625 171.6875 253.367188 C 171.6875 216.53125 141.878906 186.679688 105.089844 186.707031 C 104.457031 186.707031 103.796875 186.707031 103.160156 186.730469 "/>
</g>
<g clip-path="url(#clip2)" clip-rule="nonzero">
<path style=" stroke:none;fill-rule:nonzero;fill:rgb(97.24884%,27.059937%,29.019165%);fill-opacity:1;" d="M 268.042969 195.28125 C 300.019531 194.40625 326.605469 219.652344 327.480469 251.675781 C 327.480469 252.230469 327.503906 252.8125 327.503906 253.367188 C 327.503906 285.390625 301.605469 311.351562 269.628906 311.378906 C 237.652344 311.378906 211.726562 285.445312 211.699219 253.421875 C 211.699219 253.394531 211.699219 253.394531 211.699219 253.367188 C 211.621094 221.902344 236.648438 196.128906 268.042969 195.28125 Z M 267.988281 186.414062 C 231.730469 187.289062 202.871094 217.058594 203.03125 253.367188 C 202.742188 290.179688 232.3125 320.269531 269.101562 320.5625 C 305.859375 320.851562 335.910156 291.238281 336.199219 254.425781 C 336.199219 254.058594 336.199219 253.714844 336.199219 253.367188 C 336.359375 216.53125 306.707031 186.546875 269.917969 186.386719 C 269.285156 186.386719 268.625 186.386719 267.988281 186.414062 "/>
</g>
<path style=" stroke:none;fill-rule:nonzero;fill:rgb(97.24884%,27.059937%,29.019165%);fill-opacity:1;" d="M 198.460938 207.824219 C 198.460938 201.683594 193.492188 196.710938 187.359375 196.710938 C 181.253906 196.710938 176.261719 201.65625 176.261719 207.796875 C 176.261719 207.796875 176.261719 207.824219 176.261719 207.824219 C 176.261719 213.964844 181.230469 218.9375 187.359375 218.9375 C 193.492188 218.9375 198.460938 213.964844 198.460938 207.824219 "/>
<path style=" stroke:none;fill-rule:nonzero;fill:rgb(97.24884%,27.059937%,29.019165%);fill-opacity:1;" d="M 93.699219 105.726562 L 52.816406 205.363281 C 79.296875 176.4375 124.171875 174.480469 153.058594 200.996094 C 161.488281 208.722656 167.9375 218.410156 171.820312 229.179688 L 172.347656 119.039062 C 172.347656 116.257812 171.792969 113.480469 170.683594 110.9375 C 160.984375 88.894531 135.324219 78.890625 113.308594 88.578125 C 105.171875 92.148438 98.324219 98.128906 93.699219 105.726562 "/>
<path style=" stroke:none;fill-rule:nonzero;fill:rgb(97.24884%,27.059937%,29.019165%);fill-opacity:1;" d="M 114.234375 83.496094 L 118.621094 73.253906 C 124.171875 60.3125 139.128906 54.332031 152.050781 59.863281 C 161.40625 63.886719 167.460938 73.121094 167.460938 83.3125 L 167.460938 97.601562 C 154.457031 82.121094 133.15625 76.484375 114.234375 83.496094 "/>
<path style=" stroke:none;fill-rule:nonzero;fill:rgb(97.24884%,27.059937%,29.019165%);fill-opacity:1;" d="M 281.046875 105.726562 C 268.492188 85.191406 241.695312 78.730469 221.1875 91.304688 C 213.601562 95.933594 207.628906 102.789062 204.0625 110.9375 C 202.953125 113.480469 202.371094 116.257812 202.398438 119.039062 L 202.953125 229.179688 C 216.273438 192.289062 256.96875 173.210938 293.808594 186.574219 C 304.539062 190.488281 314.210938 196.921875 321.929688 205.363281 L 281.046875 105.726562 "/>
<path style=" stroke:none;fill-rule:nonzero;fill:rgb(97.24884%,27.059937%,29.019165%);fill-opacity:1;" d="M 207.285156 83.3125 L 207.285156 97.601562 C 220.289062 82.121094 241.5625 76.484375 260.511719 83.496094 L 256.097656 73.253906 C 250.546875 60.3125 235.5625 54.359375 222.667969 59.917969 C 213.339844 63.9375 207.285156 73.148438 207.285156 83.3125 "/>
<path style=" stroke:none;fill-rule:nonzero;fill:rgb(97.24884%,27.059937%,29.019165%);fill-opacity:1;" d="M 198.40625 197 L 198.117188 138.886719 C 198.117188 132.929688 193.28125 128.113281 187.332031 128.113281 C 181.414062 128.140625 176.605469 132.957031 176.605469 138.886719 L 176.3125 197 C 182.285156 190.886719 192.0625 190.78125 198.167969 196.761719 C 198.246094 196.839844 198.328125 196.921875 198.40625 197 "/>
</g>
</svg>
